<svg width="96" height="96" xmlns="http://www.w3.org/2000/svg" xmlns:xlink="http://www.w3.org/1999/xlink" xml:space="preserve" overflow="hidden"><defs><clipPath id="clip0"><rect x="388" y="328" width="96" height="96"/></clipPath></defs><g clip-path="url(#clip0)" transform="translate(-388 -328)"><path d="M436 338C415 338 398 355 398 376 398 397 415 414 436 414 457 414 474 397 474 376 474 355 457 338 436 338ZM452 364C455.3 364 458 366.7 458 370 458 373.3 455.3 376 452 376 448.7 376 446 373.3 446 370 446 366.7 448.7 364 452 364ZM420 364C423.3 364 426 366.7 426 370 426 373.3 423.3 376 420 376 416.7 376 414 373.3 414 370 414 366.7 416.7 364 420 364ZM436 404C426.1 404 417.6 398.3 413.5 390L436 390 458.5 390C454.4 398.3 445.9 404 436 404Z" fill="#8C53B8"/></g></svg>