<svg width="96" height="96" xmlns="http://www.w3.org/2000/svg" xmlns:xlink="http://www.w3.org/1999/xlink" xml:space="preserve" overflow="hidden"><defs><clipPath id="clip0"><rect x="218" y="324" width="96" height="96"/></clipPath></defs><g clip-path="url(#clip0)" transform="translate(-218 -324)"><path d="M251 354.8C251 359.771 246.971 363.8 242 363.8 237.029 363.8 233 359.771 233 354.8 233 349.829 237.029 345.8 242 345.8 246.971 345.8 251 349.829 251 354.8Z" fill="#8C53B8"/><path d="M299 354.8C299 359.771 294.971 363.8 290 363.8 285.029 363.8 281 359.771 281 354.8 281 349.829 285.029 345.8 290 345.8 294.971 345.8 299 349.829 299 354.8Z" fill="#8C53B8"/><path d="M284 398.2 284 389.2C284 387.8 283.4 386.4 282.2 385.6 279.8 383.6 276.6 382.2 273.4 381.4 271.2 380.8 268.6 380.2 266 380.2 263.6 380.2 261 380.6 258.6 381.4 255.4 382.2 252.4 383.8 249.8 385.6 248.6 386.6 248 387.8 248 389.2L248 398.2 284 398.2Z" fill="#8C53B8"/><path d="M275 368.8C275 373.771 270.971 377.8 266 377.8 261.029 377.8 257 373.771 257 368.8 257 363.829 261.029 359.8 266 359.8 270.971 359.8 275 363.829 275 368.8Z" fill="#8C53B8"/><path d="M306.2 371.6C303.8 369.6 300.6 368.2 297.4 367.4 295.2 366.8 292.6 366.2 290 366.2 287.6 366.2 285 366.6 282.6 367.4 281.4 367.8 280.2 368.2 279 368.8L279 369C279 372.4 277.6 375.6 275.4 377.8 279.2 379 282.2 380.6 284.6 382.4 285.2 383 285.8 383.4 286.2 384.2L308 384.2 308 375.2C308 373.8 307.4 372.4 306.2 371.6Z" fill="#8C53B8"/><path d="M247.4 382.4 247.4 382.4C250.2 380.4 253.4 378.8 256.6 377.8 254.4 375.4 253 372.4 253 369 253 368.8 253 368.8 253 368.6 251.8 368.2 250.6 367.6 249.4 367.4 247.2 366.8 244.6 366.2 242 366.2 239.6 366.2 237 366.6 234.6 367.4 231.4 368.4 228.4 369.8 225.8 371.6 224.6 372.4 224 373.8 224 375.2L224 384.2 245.6 384.2C246.2 383.4 246.6 383 247.4 382.4Z" fill="#8C53B8"/></g></svg>