<svg width="96" height="96" xmlns="http://www.w3.org/2000/svg" xmlns:xlink="http://www.w3.org/1999/xlink" xml:space="preserve" overflow="hidden"><defs><clipPath id="clip0"><rect x="544" y="321" width="96" height="96"/></clipPath></defs><g clip-path="url(#clip0)" transform="translate(-544 -321)"><path d="M630 392 627 395 558 395 554 391 554 371 558 367 627 367 630 370 630 392ZM548 361 548 401 636 401 636 361 548 361Z" fill="#9B71CE"/><path d="M600 381C600 386.523 596.418 391 592 391 587.582 391 584 386.523 584 381 584 375.477 587.582 371 592 371 596.418 371 600 375.477 600 381Z" fill="#9B71CE"/><path d="M570 381C570 382.657 568.657 384 567 384 565.343 384 564 382.657 564 381 564 379.343 565.343 378 567 378 568.657 378 570 379.343 570 381Z" fill="#9B71CE"/><path d="M620 381C620 382.657 618.657 384 617 384 615.343 384 614 382.657 614 381 614 379.343 615.343 378 617 378 618.657 378 620 379.343 620 381Z" fill="#9B71CE"/><path d="M609.9 341.7 611.4 345.5 617.4 344.3 613.2 333.8 559.4 355.8 590.2 349.7Z" fill="#9B71CE"/><path d="M604.7 357 620.5 353.9 621.2 357 627.3 357 625.3 346.8 574 357Z" fill="#9B71CE"/></g></svg>