<svg width="96" height="96" xmlns="http://www.w3.org/2000/svg" xmlns:xlink="http://www.w3.org/1999/xlink" xml:space="preserve" overflow="hidden"><defs><clipPath id="clip0"><rect x="371" y="312" width="96" height="96"/></clipPath></defs><g clip-path="url(#clip0)" transform="translate(-371 -312)"><path d="M457 384C457 385.3 455.5 386.5 453 387.4L453 383.8C454.4 383.4 455.8 382.8 457 382.2L457 384ZM449 377.4 449 373.8C450.4 373.4 451.8 372.8 453 372.2L453 374C453 375.3 451.5 376.5 449 377.4ZM449 388.6C447.8 388.9 446.4 389.1 445 389.3L445 385.4C446.3 385.2 447.7 385 449 384.8L449 388.6ZM441 375.4C442.3 375.2 443.7 375 445 374.8L445 378.6C443.8 378.9 442.4 379.1 441 379.3L441 375.4ZM441 389.8C439.7 389.9 438.4 390 437 390L437 386C438.2 386 439.6 385.9 441 385.8L441 389.8ZM433 380 433 376C434.2 376 435.6 375.9 437 375.8L437 379.8C435.7 379.9 434.4 379.9 433 380ZM433 390C431.6 390 430.3 389.9 429 389.8L429 386C429.7 386 430.3 386 431 386 431.6 386 432.3 386 433 386L433 390ZM425 375.8C426.3 375.9 427.6 376 429 376L429 380C427.6 380 426.3 379.9 425 379.8L425 375.8ZM425 389.3C423.6 389.1 422.2 388.9 421 388.6L421 385.4C422.3 385.6 423.6 385.7 425 385.8L425 389.3ZM417 378.6 417 374.7C418.3 374.9 419.6 375.2 421 375.3L421 379.3C419.6 379.1 418.2 378.9 417 378.6ZM417 387.4C414.5 386.4 413 385.2 413 384L413 383.8C413 383.8 413 383.8 413.1 383.8 413.4 383.9 413.6 384 413.9 384 414.9 384.3 415.9 384.5 417 384.7L417 387.4ZM401 373.8C401.7 373.8 402.3 373.9 403 373.9L403 374C403 375.4 403.3 376.8 404 377.9 403 377.9 402 377.8 401 377.7L401 373.8ZM397 361.8C398.3 362 399.6 362.3 401 362.4L401 366.4C399.6 366.2 398.2 366 397 365.7L397 361.8ZM397 377.3C395.6 377.1 394.2 376.9 393 376.6L393 372.7C394.3 372.9 395.6 373.2 397 373.3L397 377.3ZM389 361 389 359.2C390.2 359.8 391.5 360.3 393 360.7L393 364.4C390.5 363.5 389 362.3 389 361ZM389 375.4C386.5 374.4 385 373.2 385 372L385 370.2C386.2 370.8 387.5 371.3 389 371.7L389 375.4ZM385 344.2C386.2 344.8 387.5 345.3 389 345.7L389 349.4C386.5 348.4 385 347.2 385 346L385 344.2ZM397 347.4 397 351.4C395.6 351.2 394.2 351 393 350.7L393 346.8C394.3 347 395.6 347.2 397 347.4ZM407 330C419.2 330 429 332.7 429 336 429 339.3 419.2 342 407 342 394.8 342 385 339.3 385 336 385 332.7 394.8 330 407 330ZM413 377.4C410.5 376.4 409 375.2 409 374L409 372.2C410.2 372.8 411.5 373.3 413 373.7L413 377.4ZM425 349.4 425 345.8C426.4 345.4 427.8 344.8 429 344.2L429 346C429 347.3 427.5 348.5 425 349.4ZM417 351.3 417 347.4C418.3 347.2 419.7 347 421 346.8L421 350.6C419.8 350.9 418.4 351.1 417 351.3ZM409 352 409 348C410.2 348 411.6 347.9 413 347.8L413 351.8C411.7 351.9 410.4 351.9 409 352ZM401 351.8 401 347.8C402.3 347.9 403.6 348 405 348L405 352C403.6 351.9 402.3 351.9 401 351.8ZM453 364C453 367.3 443.2 370 431 370 418.8 370 409 367.3 409 364 409 360.7 418.8 358 431 358 443.2 358 453 360.7 453 364ZM459 367 459 364C459 359.3 455.3 355.9 448.1 354 445.4 353.3 442.3 352.7 438.8 352.4 438.9 352 438.9 351.5 438.9 351 438.9 348.2 437.6 345.8 434.9 344L434.9 336C434.9 331.3 431.2 327.9 424 326 419.3 324.7 413.3 324 406.9 324 398.5 324 378.9 325.2 378.9 336L378.9 346C378.9 348.8 380.2 351.2 382.9 353L382.9 354.9C380.5 356.6 378.9 358.9 378.9 362L378.9 372C378.9 376.7 382.6 380.1 389.8 382 394.5 383.3 400.5 384 406.9 384 406.9 388.7 410.6 392.1 417.8 394 422.5 395.3 428.5 396 434.9 396 443.3 396 462.9 394.8 462.9 384L462.9 374C463 371.2 461.7 368.8 459 367Z" fill="#9B71CE"/></g></svg>