<svg width="96" height="96" xmlns="http://www.w3.org/2000/svg" xmlns:xlink="http://www.w3.org/1999/xlink" xml:space="preserve" overflow="hidden"><defs><clipPath id="clip0"><rect x="717" y="321" width="96" height="96"/></clipPath></defs><g clip-path="url(#clip0)" transform="translate(-717 -321)"><path d="M761.9 393.4C761.4 393.4 760.8 393.3 760.4 392.9 759.6 392.2 759.5 390.9 760.2 390.1L764.1 385.6C764.8 384.8 766.1 384.7 766.9 385.4 767.7 386.1 767.8 387.4 767.1 388.2L763.2 392.7C762.9 393.1 762.4 393.3 761.9 393.4Z" fill="#887BDF"/><path d="M755.8 391.1C755.1 391.2 754.5 391 753.9 390.5 752.9 389.6 752.8 388 753.7 387L758.3 381.7C759.2 380.7 760.8 380.6 761.8 381.5 762.8 382.4 762.9 384 762 385L757.4 390.3C757 390.8 756.4 391.1 755.8 391.1Z" fill="#887BDF"/><path d="M749.5 387.4C748.7 387.5 747.9 387.2 747.3 386.7 746.1 385.6 745.9 383.7 747 382.5L751.6 377.2C752.7 376 754.6 375.8 755.8 376.9 757 378 757.2 379.9 756.1 381.1L751.5 386.4C751 387 750.2 387.4 749.5 387.4Z" fill="#887BDF"/><path d="M742.2 383.7C741.4 383.8 740.6 383.5 740 383 738.8 381.9 738.6 380 739.7 378.8L745 372.8C746.1 371.6 748 371.4 749.2 372.5 750.4 373.6 750.6 375.5 749.5 376.7L744.2 382.7C743.6 383.3 742.9 383.6 742.2 383.7Z" fill="#887BDF"/><path d="M721.6 361.7 729.3 366.4C730.2 367 731.5 366.7 732 365.7L741.3 350.3C741.9 349.4 741.6 348.1 740.6 347.6L733 342.9 721.6 361.7Z" fill="#887BDF"/><path d="M786.4 374.8 770.3 361 769.2 360 762.3 367.9C761.3 369.1 759.9 369.8 758.3 369.9 758.1 369.9 757.9 369.9 757.8 369.9 756.3 369.9 754.9 369.4 753.9 368.4 751.4 366.2 751.2 362.4 753.3 359.9L759.2 353.1C754.6 352.5 748.7 354.9 742.6 351.9L733.9 366.3 740.7 374.2 743.3 371.2C744.2 370.1 745.6 369.5 747.1 369.5L747.1 369.5C748.3 369.5 749.5 369.9 750.4 370.7 751.5 371.6 752 372.9 752.1 374.3 752.6 374.1 753.2 374 753.8 374 755 374 756.2 374.4 757.1 375.2 758.2 376.2 758.8 377.5 758.8 378.9 759.2 378.8 759.7 378.7 760.1 378.7L760.1 378.7C761.2 378.7 762.2 379.1 763.1 379.8 764 380.6 764.5 381.7 764.6 382.9 764.9 382.8 765.3 382.7 765.7 382.7L765.7 382.7C766.7 382.7 767.6 383 768.3 383.7 769.1 384.4 769.6 385.4 769.7 386.4 769.8 387.5 769.4 388.5 768.7 389.3L765.3 393.2 766.7 394.3C767.4 394.7 768.2 395 769.1 394.9 771.3 394.7 772.9 392.8 772.7 390.6 772.7 390.6 772.7 390.5 772.7 390.5 773 390.6 773.4 390.6 773.7 390.6 775.9 390.4 777.5 388.5 777.3 386.3 777.3 386.3 777.3 386.2 777.3 386.2 777.6 386.3 778 386.3 778.3 386.3 780.5 386.1 782.1 384.2 781.9 382 781.9 381.8 781.8 381.6 781.8 381.4 782.4 381.7 783.1 381.9 783.9 381.8 786.1 381.6 787.7 379.7 787.5 377.5 787.6 376.4 787.1 375.5 786.4 374.8Z" fill="#887BDF"/><path d="M808.4 361.7 800.7 366.4C799.8 367 798.5 366.7 798 365.7L788.7 350.3C788.1 349.4 788.4 348.1 789.4 347.6L797.1 342.9 808.4 361.7Z" fill="#887BDF"/><path d="M787.5 352.3C779.2 355.3 773.2 352.4 766.5 351.1 766.4 351.1 766 351 766 351 764.8 350.9 763.5 351.3 762.6 352.3L754.7 361.3C753.2 363 753.4 365.5 755.1 366.9 756 367.6 757 368 758.1 367.9 759.1 367.8 760.1 367.4 760.8 366.5 760.8 366.5 769 357.1 769 357.1L787.7 373.2 787.7 373.2 787.7 373.2C788.2 373.7 788.4 373.9 788.8 374.5L796 366.2 787.5 352.3Z" fill="#887BDF"/></g></svg>